<svg xmlns="http://www.w3.org/2000/svg" width="310" height="313" viewBox="0 0 310 313" fill="none">
  <path d="M300.308 0H280.936V19.3721H300.308V0Z" fill="white"/>
  <path d="M232.523 135.674V96.8604L232.535 96.8721H271.267V135.616H310V147.896C310 162.092 308.793 178.91 306.019 192.119C304.463 199.501 302.107 206.837 299.345 213.882C296.513 221.09 293.251 227.996 289.699 234.183C285.068 242.261 279.706 250.015 273.484 257.304L273.155 257.688L272.614 258.323C271.119 260.077 269.642 261.81 268.018 263.502C266.125 265.522 264.164 267.437 262.168 269.352C237.375 293.228 205.072 308.143 171.296 311.567C167.234 311.985 159.074 312.414 155 312.414C150.914 312.403 142.766 311.985 138.704 311.567C104.927 308.143 72.6251 293.216 47.8324 269.352C45.8361 267.437 43.8745 265.522 41.9824 263.502C40.2777 261.736 38.7412 259.926 37.1869 258.095L37.1818 258.089L36.5156 257.304C30.2941 250.015 24.9318 242.261 20.3006 234.183C16.7488 227.985 13.4872 221.09 10.6552 213.882C7.89282 206.837 5.53656 199.501 3.98112 192.119C1.20717 178.899 0 162.092 0 147.896V2.42586H77.4768V135.674C77.4768 135.674 77.4768 145.888 77.6043 149.231L77.6338 150.011V150.016C77.7967 154.339 77.9562 158.574 78.4054 162.788C79.682 174.755 82.3284 186.107 87.7836 195.706C89.3623 198.48 90.9642 201.173 92.8793 203.726C104.533 219.268 122.268 230.933 144.391 234.183C147.026 234.566 152.342 234.903 155 234.903C157.658 234.903 162.974 234.566 165.609 234.183C187.732 230.933 205.467 219.268 217.121 203.726C219.047 201.173 220.637 198.48 222.216 195.706C227.671 186.107 230.318 174.755 231.595 162.788C232.044 158.566 232.204 154.323 232.367 149.991L232.395 149.231C232.523 145.888 232.523 135.674 232.523 135.674Z" fill="white"/>
  <path d="M242.192 29.0639H271.256L271.256 58.1163H310V96.8604H271.256L271.256 58.1279H242.192V29.0639Z" fill="white"/>
</svg>